<svg width="24" height="24" viewBox="0 0 24 24" fill="none" xmlns="http://www.w3.org/2000/svg">
<path d="M6.71428 13C4.11066 13 2 12.4073 2 11.6763C2 11.2582 2.6901 10.8854 3.76786 10.6429" stroke="black" stroke-width="0.8" stroke-linecap="round"/>
<path d="M7.71852 10.7151C7.52578 10.8979 7.26818 11 7.00009 11C6.73199 11 6.47439 10.8979 6.28166 10.7151C4.51674 9.03169 2.15154 7.15111 3.30498 4.42085C3.92863 2.94462 5.42568 2 7.00009 2C8.57449 2 10.0715 2.94462 10.6952 4.42085C11.8472 7.14767 9.48779 9.03749 7.71852 10.7151Z" stroke="black" stroke-width="0.8"/>
<path d="M22 14.9C21.9763 13.436 21.863 12.5903 21.3216 11.9834C21.2121 11.8606 21.0914 11.7471 20.9609 11.6441C20.145 11 18.9229 11 16.4786 11H14.5277C12.0834 11 10.8613 11 10.0454 11.6441C9.91488 11.7471 9.79419 11.8606 9.68468 11.9834C9.00003 12.751 9.00003 13.9006 9.00003 16.2C9.00003 18.4994 9.00003 19.649 9.68468 20.4166C9.79419 20.5394 9.91488 20.6529 10.0454 20.7559C10.8613 21.4 12.0834 21.4 14.5277 21.4H14.85" stroke="black" stroke-width="0.8" stroke-linecap="round" stroke-linejoin="round"/>
<path d="M9 14.25H22" stroke="black" stroke-width="0.8" stroke-linejoin="round"/>
<path d="M20.2667 16.85L20.8017 17.3426C20.9182 17.4571 20.9764 17.5143 20.9559 17.563C20.9354 17.6116 20.8531 17.6116 20.6883 17.6116H18.6705C17.6374 17.6116 16.8 18.4347 16.8 19.45C16.8 19.6788 16.8425 19.8979 16.9203 20.1M18.5333 22.05L17.9983 21.5574C17.8818 21.4429 17.8235 21.3856 17.844 21.337C17.8645 21.2884 17.9469 21.2884 18.1116 21.2884H20.1295C21.1625 21.2884 22 20.4653 22 19.45C22 19.2211 21.9574 19.0021 21.8797 18.8" stroke="black" stroke-width="0.8" stroke-linecap="round" stroke-linejoin="round"/>
<circle cx="7" cy="6" r="1" fill="black"/>
</svg>
