<svg width="24" height="24" viewBox="0 0 24 24" fill="none" xmlns="http://www.w3.org/2000/svg">
<path d="M4.625 16C3.02469 16.3088 2 16.7832 2 17.3152C2 18.2457 5.13401 19 9 19H11" stroke="black" stroke-width="0.8" stroke-linecap="round"/>
<path d="M11.0778 15.5569C10.7887 15.8411 10.4023 16 10.0001 16C9.59799 16 9.21159 15.8411 8.92249 15.5569C6.27512 12.9382 2.72731 10.0128 4.45747 5.76577C5.39295 3.46941 7.63852 2 10.0001 2C12.3617 2 14.6073 3.46941 15.5428 5.76577C17.2708 10.0075 13.7317 12.9472 11.0778 15.5569Z" stroke="black" stroke-width="0.8"/>
<circle cx="10" cy="8" r="2" fill="black"/>
<path d="M19.3333 14L20.1565 14.7579C20.3357 14.934 20.4253 15.0221 20.3938 15.0969C20.3622 15.1717 20.2355 15.1717 19.9821 15.1717H16.8777C15.2884 15.1717 14 16.438 14 18C14 18.3521 14.0655 18.6891 14.185 19M16.6667 22L15.8435 21.2421C15.6643 21.066 15.5747 20.9779 15.6062 20.9031C15.6378 20.8283 15.7645 20.8283 16.0179 20.8283H19.1223C20.7116 20.8283 22 19.562 22 18C22 17.6479 21.9345 17.3109 21.815 17" stroke="black" stroke-width="0.8" stroke-linecap="round" stroke-linejoin="round"/>
</svg>
